<?xml version="1.0" standalone="no"?>
<!DOCTYPE svg PUBLIC "-//W3C//DTD SVG 20010904//EN"
 "http://www.w3.org/TR/2001/REC-SVG-20010904/DTD/svg10.dtd">
<svg version="1.0" xmlns="http://www.w3.org/2000/svg"
 width="24.000000pt" height="24.000000pt" viewBox="0 0 24.000000 24.000000"
 preserveAspectRatio="xMidYMid meet">

<g transform="translate(0.000000,24.000000) scale(0.100000,-0.100000)"
fill="#000000" stroke="none">
<path d="M110 210 c0 -25 -4 -30 -23 -30 -32 0 -57 -30 -57 -67 0 -44 45 -72
96 -59 23 6 24 9 24 96 0 83 -1 90 -20 90 -16 0 -20 -7 -20 -30z m0 -90 c0
-23 -4 -30 -20 -30 -14 0 -20 7 -20 23 0 27 7 37 27 37 8 0 13 -12 13 -30z"/>
<path d="M170 220 c0 -13 7 -20 20 -20 13 0 20 7 20 20 0 13 -7 20 -20 20 -13
0 -20 -7 -20 -20z"/>
<path d="M170 111 c0 -50 -4 -72 -16 -82 -14 -11 -14 -13 1 -22 12 -6 22 -4
36 9 15 14 19 31 19 91 0 66 -2 73 -20 73 -18 0 -20 -7 -20 -69z"/>
</g>
</svg>
